<svg xmlns="http://www.w3.org/2000/svg" width="360" height="120" viewBox="0 0 360 120" version="1.1"><path d="M 179 56 L 179 96 186 96 L 193 96 193 56 L 193 16 186 16 L 179 16 179 56 M 199.667 16.667 C 199.300 17.033, 199 19.958, 199 23.167 L 199 29 206.500 29 L 214 29 214 22.500 L 214 16 207.167 16 C 203.408 16, 200.033 16.300, 199.667 16.667 M 247 56 L 247 96 254 96 C 259.790 96, 261 95.720, 261 94.378 C 261 92.982, 261.231 92.947, 262.654 94.128 C 264.789 95.899, 275.873 95.941, 279.146 94.190 C 284.102 91.537, 284.478 89.863, 284.824 68.880 C 285.200 46.059, 284.483 41.875, 279.699 38.958 C 275.691 36.514, 266.460 36.289, 263.223 38.557 L 261 40.113 261 28.057 L 261 16 254 16 L 247 16 247 56 M 222 32 C 222 36.889, 221.933 37, 219 37 C 216.030 37, 216 37.056, 216 42.500 C 216 47.944, 216.030 48, 219 48 L 222 48 222 68.577 L 222 89.154 224.830 91.984 C 226.961 94.115, 229.016 94.983, 233.151 95.500 C 242.816 96.707, 243.455 96.366, 243.798 89.813 L 244.096 84.126 240.298 83.813 L 236.500 83.500 236.227 65.750 L 235.954 48 239.977 48 L 244 48 244 42.500 L 244 37 240 37 L 236 37 236 32 L 236 27 229 27 L 222 27 222 32 M 335 32 C 335 36.889, 334.933 37, 332 37 C 329.030 37, 329 37.056, 329 42.500 C 329 47.944, 329.030 48, 332 48 L 335 48 335 66.851 C 335 78.068, 335.449 86.989, 336.108 88.881 C 337.575 93.087, 341.871 95.186, 350.242 95.785 L 357 96.269 357 90.134 L 357 84 353.607 84 C 351.435 84, 349.995 83.431, 349.607 82.418 C 349.273 81.548, 349 73.448, 349 64.418 L 349 48 353 48 L 357 48 357 42.500 L 357 37 353 37 L 349 37 349 32 L 349 27 342 27 L 335 27 335 32 M 141.378 38.383 C 135.217 41.171, 135 42.135, 135 66.667 C 135 88.272, 135.062 88.961, 137.250 91.497 C 139.911 94.581, 145.065 95.952, 154 95.952 C 168.479 95.952, 173 92.857, 173 82.944 L 173 77 166.060 77 L 159.121 77 158.810 80.750 C 158.514 84.336, 158.327 84.514, 154.540 84.823 C 149.455 85.238, 148 83.344, 148 76.309 L 148 71 160.500 71 L 173 71 173 57.516 C 173 44.040, 172.998 44.030, 170.091 40.776 L 167.182 37.520 155.841 37.245 C 147.708 37.048, 143.617 37.370, 141.378 38.383 M 200 66.500 L 200 96 207 96 L 214 96 214 66.500 L 214 37 207 37 L 200 37 200 66.500 M 296.378 38.383 C 290.217 41.171, 290 42.135, 290 66.667 C 290 88.272, 290.062 88.961, 292.250 91.497 C 294.911 94.581, 300.065 95.952, 309 95.952 C 323.479 95.952, 328 92.857, 328 82.944 L 328 77 321.500 77 C 315.006 77, 315 77.003, 315 79.878 C 315 83.693, 312.965 85.197, 308.320 84.815 L 304.500 84.500 304.205 77.781 L 303.910 71.062 316.205 70.781 L 328.500 70.500 328.500 57.898 C 328.500 39.053, 327.345 37.730, 310.500 37.270 C 302.614 37.055, 298.616 37.370, 296.378 38.383 M 48.898 48.280 C 41.762 53.068, 41.762 63.911, 48.898 68.713 C 58.901 75.445, 71.446 66.065, 67.786 54.592 C 66.194 49.599, 61.256 46, 56 46 C 53.804 46, 50.912 46.929, 48.898 48.280 M 148.643 50.202 C 148.304 51.466, 148.021 54.413, 148.014 56.750 L 148 61 154.048 61 L 160.095 61 159.798 54.750 L 159.500 48.500 154.379 48.202 C 149.761 47.934, 149.198 48.130, 148.643 50.202 M 262.225 48.814 C 261.256 49.448, 261.016 53.713, 261.225 66.574 L 261.500 83.500 265.773 83.809 L 270.047 84.117 269.773 66.309 L 269.500 48.500 266.500 48.239 C 264.850 48.096, 262.926 48.355, 262.225 48.814 M 304 54.448 L 304 61 309.548 61 L 315.095 61 314.798 54.750 L 314.500 48.500 309.250 48.198 L 304 47.895 304 54.448" stroke="none" fill="#24243c" fill-rule="evenodd"/><path d="M 47.182 4.119 C 36.002 5.978, 24.060 12.756, 15.925 21.858 C 10.211 28.251, 4.344 39.431, 3.388 45.750 L 2.744 50 12.736 50 L 22.728 50 24.380 45.676 C 31.264 27.651, 53.373 18.321, 70.866 26.059 C 73.354 27.159, 76.922 29.229, 78.795 30.657 L 82.200 33.254 74.570 40.930 C 70.373 45.152, 67.253 48.919, 67.636 49.303 C 68.020 49.686, 78.158 50, 90.167 50 C 108.604 50, 112 49.774, 112 48.545 C 112 46.059, 107.480 34.495, 104.563 29.517 C 100.223 22.112, 90.820 13.512, 82.686 9.510 C 71.035 3.777, 59.639 2.046, 47.182 4.119 M 3 69.962 C 3 73.143, 7.041 83.095, 10.615 88.716 C 17.041 98.822, 27.409 107.135, 38.500 111.073 C 46.013 113.741, 61.226 114.718, 69.267 113.048 C 89.068 108.938, 107.180 90.992, 111.455 71.250 L 112.159 68 101.688 68 L 91.217 68 90.551 70.750 C 89.476 75.188, 83.306 83.766, 78.883 86.970 C 76.632 88.601, 72.249 90.893, 69.145 92.064 C 58.319 96.148, 40.915 93.088, 34.471 85.968 C 32.652 83.958, 32.725 83.827, 39.435 77.066 C 43.260 73.211, 45.946 69.721, 45.563 69.102 C 45.102 68.356, 38.114 68, 23.941 68 C 3.800 68, 3 68.075, 3 69.962" stroke="none" fill="#e4145c" fill-rule="evenodd"/></svg>